<svg width="55" height="55" viewBox="0 0 55 55" fill="none" xmlns="http://www.w3.org/2000/svg">
<g id="Group 299">
<g id="Group 298">
<rect id="Rectangle 334" x="0.5" y="0.581421" width="54" height="54" rx="8" fill="#F5F9FF"/>
<g id="notifications_active">
<mask id="mask0_2627_2098" style="mask-type:alpha" maskUnits="userSpaceOnUse" x="8" y="9" width="39" height="38">
<rect id="Bounding box" x="8.98584" y="9.06714" width="37.0286" height="37.0286" fill="#D9D9D9"/>
</mask>
<g mask="url(#mask0_2627_2098)">
<path id="notifications_active_2" d="M15.1216 37.9606V35.0057H18.0839V24.6636C18.0839 22.6198 18.701 20.8038 19.9353 19.2155C21.1696 17.6272 22.7742 16.5869 24.749 16.0944V15.0602C24.749 14.4446 24.965 13.9213 25.397 13.4904C25.829 13.0595 26.3536 12.844 26.9707 12.844C27.5879 12.844 28.1124 13.0595 28.5444 13.4904C28.9764 13.9213 29.1924 14.4446 29.1924 15.0602V16.0944C31.1673 16.5869 32.7719 17.6272 34.0062 19.2155C35.2404 20.8038 35.8576 22.6198 35.8576 24.6636V35.0057H38.8199V37.9606H15.1216ZM26.9707 42.393C26.1561 42.393 25.4587 42.1036 24.8786 41.525C24.2985 40.9463 24.0084 40.2507 24.0084 39.4381H29.933C29.933 40.2507 29.643 40.9463 29.0628 41.525C28.4827 42.1036 27.7854 42.393 26.9707 42.393ZM21.0462 35.0057H32.8953V24.6636C32.8953 23.0384 32.3152 21.6471 31.155 20.4898C29.9947 19.3325 28.6 18.7538 26.9707 18.7538C25.3415 18.7538 23.9467 19.3325 22.7865 20.4898C21.6263 21.6471 21.0462 23.0384 21.0462 24.6636V35.0057Z" fill="#4E7CFB"/>
<g id="Group 300">
<path id="notifications_active_3" d="M38.5221 24.8178C38.5221 22.8479 38.084 21.038 37.2076 19.3882C36.3313 17.7383 35.1525 16.3717 33.6714 15.2882L35.4117 12.9243C37.2632 14.2786 38.7381 15.9839 39.8366 18.04C40.9352 20.0961 41.4844 22.3554 41.4844 24.8178H38.5221Z" fill="#51D582"/>
<path id="notifications_active_4" d="M15.0335 24.8178C15.0335 22.8479 15.4717 21.038 16.348 19.3882C17.2244 17.7383 18.4031 16.3717 19.8843 15.2882L18.1439 12.9243C16.2925 14.2786 14.8175 15.9839 13.719 18.04C12.6205 20.0961 12.0712 22.3554 12.0712 24.8178H15.0335Z" fill="#51D582"/>
</g>
</g>
</g>
</g>
</g>
</svg>
