<svg width="70" height="71" viewBox="0 0 70 71" fill="none" xmlns="http://www.w3.org/2000/svg">
<rect width="51.2422" height="51.2656" transform="matrix(0.97387 0.227107 -0.229482 0.973313 15.9307 4.60291)" fill="#D4FFEF"/>
<path d="M10.3618 18.224H52.8973V60.669H10.3618V18.224Z" fill="white" fill-opacity="0.01"/>
<path d="M52.8973 18.224H10.3618V60.669H52.8973V18.224Z" fill="white" fill-opacity="0.01"/>
<path d="M40.491 22.6454H17.4509C15.9827 22.6454 14.7925 23.8331 14.7925 25.2982V48.2893C14.7925 49.7544 15.9827 50.9421 17.4509 50.9421H40.491C41.9593 50.9421 43.1495 49.7544 43.1495 48.2893V25.2982C43.1495 23.8331 41.9593 22.6454 40.491 22.6454Z" fill="#8AF6B2" stroke="black" stroke-width="4" stroke-linejoin="round"/>
<path d="M49.3524 29.7213V55.3635C49.3524 56.3402 48.5589 57.132 47.5801 57.132H21.8848" stroke="black" stroke-width="4" stroke-linecap="round" stroke-linejoin="round"/>
<path d="M21.8818 36.3391L27.1985 41.2247L36.0603 32.1241" stroke="black" stroke-width="4" stroke-linecap="round" stroke-linejoin="round"/>
</svg>
