<svg width="55" height="55" viewBox="0 0 55 55" fill="none" xmlns="http://www.w3.org/2000/svg">
<rect x="0.5" y="0.581421" width="54" height="54" rx="8" fill="#F5F9FF"/>
<mask id="mask0_2627_2121" style="mask-type:alpha" maskUnits="userSpaceOnUse" x="8" y="9" width="39" height="38">
<rect width="37.0286" height="37.0286" transform="matrix(-1 0 0 1 46.0146 9.06714)" fill="#D9D9D9"/>
</mask>
<g mask="url(#mask0_2627_2121)">
<path d="M19.1678 41.93V31.2033C18.2883 30.2313 17.6056 29.1204 17.1196 27.8707C16.6336 26.621 16.3906 25.2903 16.3906 23.8786C16.3906 20.7774 17.4668 18.1507 19.6191 15.9984C21.7713 13.8462 24.3981 12.77 27.4992 12.77C30.6003 12.77 33.2271 13.8462 35.3793 15.9984C37.5316 18.1507 38.6078 20.7774 38.6078 23.8786C38.6078 25.2903 38.3648 26.621 37.8788 27.8707C37.3928 29.1204 36.7101 30.2313 35.8306 31.2033V41.93L27.4992 39.1529L19.1678 41.93ZM27.4992 32.21C29.8135 32.21 31.7806 31.4 33.4006 29.78C35.0206 28.16 35.8306 26.1929 35.8306 23.8786C35.8306 21.5643 35.0206 19.5972 33.4006 17.9772C31.7806 16.3572 29.8135 15.5472 27.4992 15.5472C25.1849 15.5472 23.2178 16.3572 21.5978 17.9772C19.9778 19.5972 19.1678 21.5643 19.1678 23.8786C19.1678 26.1929 19.9778 28.16 21.5978 29.78C23.2178 31.4 25.1849 32.21 27.4992 32.21ZM21.9449 37.799L27.4992 36.3757L33.0535 37.799V33.4944C32.2435 33.9573 31.3698 34.3218 30.4326 34.5879C29.4953 34.8541 28.5175 34.9872 27.4992 34.9872C26.4809 34.9872 25.5031 34.8541 24.5658 34.5879C23.6286 34.3218 22.7549 33.9573 21.9449 33.4944V37.799Z" fill="#4E7CFB"/>
<path d="M26.0662 20.4698C26.6545 19.2858 28.3436 19.2858 28.9319 20.4698L29.0565 20.7206C29.2895 21.1895 29.7371 21.5147 30.2551 21.5914L30.5321 21.6324C31.84 21.826 32.362 23.4325 31.4176 24.3579L31.2177 24.5539C30.8437 24.9204 30.6727 25.4466 30.7598 25.9629L30.8064 26.239C31.0265 27.5428 29.6599 28.5356 28.488 27.9234L28.2398 27.7938C27.7757 27.5514 27.2224 27.5514 26.7583 27.7938L26.5101 27.9234C25.3381 28.5356 23.9716 27.5428 24.1916 26.239L24.2382 25.9629C24.3254 25.4466 24.1544 24.9204 23.7804 24.5539L23.5804 24.3579C22.6361 23.4325 23.1581 21.826 24.466 21.6324L24.743 21.5914C25.2609 21.5147 25.7086 21.1895 25.9416 20.7206L26.0662 20.4698Z" fill="#51D582"/>
</g>
</svg>
