<svg width="70" height="71" viewBox="0 0 70 71" fill="none" xmlns="http://www.w3.org/2000/svg">
<rect width="50.6569" height="50.7976" transform="matrix(0.844887 0.534945 -0.535471 0.844554 27.2007 0.370361)" fill="#FFEBF3"/>
<path d="M9.7959 15.0704H57.2993V62.6196H9.7959V15.0704Z" fill="white" fill-opacity="0.01"/>
<path d="M33.5477 34.8826C37.3737 34.8826 40.4753 31.7781 40.4753 27.9484C40.4753 24.1187 37.3737 21.0141 33.5477 21.0141C29.7217 21.0141 26.6201 24.1187 26.6201 27.9484C26.6201 31.7781 29.7217 34.8826 33.5477 34.8826Z" fill="#FF2F86" stroke="black" stroke-width="4" stroke-linecap="round" stroke-linejoin="round"/>
<path d="M15.7339 55.4873V56.676H51.3615V55.4873C51.3615 51.049 51.3615 48.8298 50.4986 47.1346C49.7395 45.6434 48.5283 44.431 47.0386 43.6712C45.345 42.8075 43.1279 42.8075 38.6939 42.8075H28.4015C23.9674 42.8075 21.7504 42.8075 20.0568 43.6712C18.5671 44.431 17.3559 45.6434 16.5968 47.1346C15.7339 48.8298 15.7339 51.049 15.7339 55.4873Z" fill="#FF2F86" stroke="black" stroke-width="4" stroke-linecap="round" stroke-linejoin="round"/>
</svg>
