<svg width="24" height="25" viewBox="0 0 24 25" fill="none" xmlns="http://www.w3.org/2000/svg">
<g id="phone_enabled">
<mask id="mask0_3147_4001" style="mask-type:alpha" maskUnits="userSpaceOnUse" x="0" y="0" width="24" height="25">
<rect id="Bounding box" y="0.626953" width="24" height="24" fill="#D9D9D9"/>
</mask>
<g mask="url(#mask0_3147_4001)">
<path id="phone_enabled_2" d="M4.05 21.627C3.75 21.627 3.5 21.527 3.3 21.327C3.1 21.127 3 20.877 3 20.577V16.527C3 16.3103 3.075 16.1145 3.225 15.9395C3.375 15.7645 3.56667 15.6436 3.8 15.577L7.25 14.877C7.48333 14.8436 7.72083 14.8645 7.9625 14.9395C8.20417 15.0145 8.4 15.127 8.55 15.277L10.9 17.627C11.5333 17.2603 12.1333 16.8561 12.7 16.4145C13.2667 15.9728 13.8083 15.4936 14.325 14.977C14.875 14.4436 15.3792 13.8895 15.8375 13.3145C16.2958 12.7395 16.6917 12.1436 17.025 11.527L14.6 9.07695C14.4667 8.94362 14.375 8.78529 14.325 8.60195C14.275 8.41862 14.2667 8.19362 14.3 7.92695L14.95 4.42695C14.9833 4.21029 15.0917 4.02279 15.275 3.86445C15.4583 3.70612 15.6667 3.62695 15.9 3.62695H19.95C20.25 3.62695 20.5 3.72695 20.7 3.92695C20.9 4.12695 21 4.37695 21 4.67695C21 6.76029 20.5458 8.81862 19.6375 10.852C18.7292 12.8853 17.4417 14.7353 15.775 16.402C14.1083 18.0686 12.2583 19.3561 10.225 20.2645C8.19167 21.1728 6.13333 21.627 4.05 21.627ZM17.95 9.62695C18.2333 8.97695 18.45 8.31862 18.6 7.65195C18.75 6.98529 18.8667 6.31029 18.95 5.62695H16.75L16.3 7.97695L17.95 9.62695ZM9 18.527L7.35 16.877L5 17.377V19.577C5.68333 19.527 6.35833 19.4103 7.025 19.227C7.69167 19.0436 8.35 18.8103 9 18.527Z" fill="#4E7CFB"/>
</g>
</g>
</svg>
