<svg width="55" height="55" viewBox="0 0 55 55" fill="none" xmlns="http://www.w3.org/2000/svg">
<rect x="0.5" y="0.581421" width="54" height="54" rx="8" fill="#F5F9FF"/>
<mask id="mask0_2627_2111" style="mask-type:alpha" maskUnits="userSpaceOnUse" x="8" y="8" width="39" height="39">
<rect x="8.98535" y="8.29565" width="37.8" height="37.8" fill="#D9D9D9"/>
</mask>
<g mask="url(#mask0_2627_2111)">
<path d="M24.5321 34.3578H30.8568V31.1746H24.5321V34.3578ZM24.5321 27.9915H35.6003V24.8083H24.5321V27.9915ZM19.7886 21.6252H35.6003V18.442H19.7886V21.6252ZM24.5321 40.7241V37.5409H38.7627V15.2588H16.6262V21.6252H13.4639V15.2588C13.4639 14.3835 13.7735 13.6341 14.3928 13.0107C15.0121 12.3874 15.7566 12.0757 16.6262 12.0757H38.7627C39.6323 12.0757 40.3768 12.3874 40.9961 13.0107C41.6154 13.6341 41.925 14.3835 41.925 15.2588V37.5409C41.925 38.4163 41.6154 39.1657 40.9961 39.789C40.3768 40.4124 39.6323 40.7241 38.7627 40.7241H24.5321Z" fill="#4E7CFB"/>
<path d="M19.4286 41.6458C17.3892 41.6458 15.6531 40.9247 14.2204 39.4826C12.7877 38.0404 12.0713 36.2929 12.0713 34.2401C12.0713 32.7589 12.4521 31.4337 13.2136 30.2644C13.9752 29.0951 14.9755 28.2116 16.2146 27.6139H12.2649V24.4957H21.5583V33.8503H18.4605V30.0695C17.5054 30.2774 16.718 30.7711 16.0984 31.5506C15.4789 32.3302 15.1691 33.2267 15.1691 34.2401C15.1691 35.4354 15.5886 36.4488 16.4276 37.2803C17.2666 38.1118 18.2669 38.5276 19.4286 38.5276V41.6458Z" fill="#51D582"/>
</g>
</svg>
