<svg width="73" height="73" viewBox="0 0 73 73" fill="none" xmlns="http://www.w3.org/2000/svg">
<g id="Mask group">
<mask id="mask0_1539_5217" style="mask-type:alpha" maskUnits="userSpaceOnUse" x="0" y="0" width="73" height="73">
<rect id="Rectangle 338" x="0.5" y="0.788574" width="72" height="72" fill="#D9D9D9"/>
</mask>
<g mask="url(#mask0_1539_5217)">
<g id="Group 303">
<path id="Ellipse 23" d="M65.2993 29.7485C65.2993 41.7662 55.557 51.5085 43.5393 51.5085C31.5216 51.5085 21.7793 41.7662 21.7793 29.7485C21.7793 17.7308 31.5216 7.98853 43.5393 7.98853C55.557 7.98853 65.2993 17.7308 65.2993 29.7485Z" fill="#D6DCE6"/>
<path id="Ellipse 24" d="M32.0332 58.3352C32.0332 62.1055 28.9768 65.1619 25.2065 65.1619C21.4363 65.1619 18.3799 62.1055 18.3799 58.3352C18.3799 54.5649 21.4363 51.5085 25.2065 51.5085C28.9768 51.5085 32.0332 54.5649 32.0332 58.3352Z" fill="#D6DCE6"/>
<g id="Group 301">
<path id="Union" fill-rule="evenodd" clip-rule="evenodd" d="M43.9662 17.3752C47.5008 17.3752 50.3662 20.2406 50.3662 23.7753V37.8302C50.3662 41.3648 47.5008 44.2302 43.9662 44.2302H19.453L11.0878 51.3831H7.69955L8.07602 43.7282L10.4603 43.7795V24.4864C10.4603 20.559 13.6441 17.3752 17.5714 17.3752H43.9662Z" fill="#E7E7E7"/>
<path id="Union_2" fill-rule="evenodd" clip-rule="evenodd" d="M40.4944 17.3752C44.4217 17.3752 47.6055 20.559 47.6055 24.4864V37.119C47.6055 41.0464 44.4217 44.2301 40.4944 44.2301H16.1911L7.69978 51.5086L7.69964 44.2301H7.69959V24.4864C7.69959 20.559 10.8834 17.3752 14.8107 17.3752H40.4944Z" fill="white"/>
<path id="?" d="M25.7926 31.9029C25.7926 31.4391 25.8559 31.0245 25.9824 30.6591C26.1089 30.2936 26.3127 29.9493 26.5938 29.626C26.8889 29.3028 27.2754 28.9725 27.7533 28.6352C28.1749 28.3259 28.5123 28.0519 28.7652 27.8129C29.0323 27.574 29.222 27.3351 29.3345 27.0961C29.461 26.8572 29.5242 26.5902 29.5242 26.295C29.5242 25.8453 29.3556 25.5079 29.0182 25.2831C28.695 25.0441 28.2382 24.9247 27.6479 24.9247C27.0576 24.9247 26.4743 25.016 25.898 25.1987C25.3218 25.3814 24.7315 25.6274 24.1271 25.9366L23.0098 23.6808C23.6985 23.3013 24.4434 22.9921 25.2445 22.7532C26.0456 22.5142 26.9241 22.3948 27.8798 22.3948C29.3415 22.3948 30.4729 22.7461 31.274 23.4489C32.0892 24.1516 32.4968 25.0441 32.4968 26.1264C32.4968 26.7026 32.4055 27.2016 32.2228 27.6232C32.04 28.0448 31.766 28.4384 31.4005 28.8038C31.0351 29.1552 30.5783 29.5347 30.0302 29.9423C29.6226 30.2374 29.3064 30.4904 29.0815 30.7012C28.8566 30.912 28.702 31.1158 28.6177 31.3126C28.5474 31.5094 28.5123 31.7553 28.5123 32.0505V32.6619H25.7926V31.9029ZM25.4553 36.1826C25.4553 35.5361 25.631 35.0864 25.9824 34.8334C26.3338 34.5663 26.7624 34.4328 27.2684 34.4328C27.7603 34.4328 28.182 34.5663 28.5333 34.8334C28.8847 35.0864 29.0604 35.5361 29.0604 36.1826C29.0604 36.8011 28.8847 37.2508 28.5333 37.5319C28.182 37.7989 27.7603 37.9325 27.2684 37.9325C26.7624 37.9325 26.3338 37.7989 25.9824 37.5319C25.631 37.2508 25.4553 36.8011 25.4553 36.1826Z" fill="#5682FD"/>
</g>
</g>
</g>
</g>
</svg>
