<svg width="70" height="71" viewBox="0 0 70 71" fill="none" xmlns="http://www.w3.org/2000/svg">
<rect width="51.243" height="51.2646" transform="matrix(0.977786 -0.209606 0.208997 0.977916 4.59033 15.6745)" fill="#FFF0E3"/>
<path d="M16.2861 18.7022H59.1203V61.4453H16.2861V18.7022Z" fill="white" fill-opacity="0.01"/>
<path d="M35.0264 52.5405C43.4048 52.5405 50.1969 45.7629 50.1969 37.4024C50.1969 29.0418 43.4048 22.2642 35.0264 22.2642C26.648 22.2642 19.856 29.0418 19.856 37.4024C19.856 45.7629 26.648 52.5405 35.0264 52.5405Z" fill="#FF932F" stroke="black" stroke-width="4" stroke-linejoin="round"/>
<path d="M40.0741 31.4745C38.7822 30.1853 36.9975 29.388 35.0261 29.388C33.0548 29.388 31.27 30.1853 29.978 31.4745" stroke="black" stroke-width="4" stroke-linecap="round" stroke-linejoin="round"/>
<path d="M45.9326 48.2856L53.5047 55.8416" stroke="black" stroke-width="4" stroke-linecap="round" stroke-linejoin="round"/>
</svg>
